HIERARCHY
ROOT SpineBase
{
  OFFSET 0.000000 0.000000 0.000000
  CHANNELS 6 Xposition Yposition Zposition Zrotation Xrotation Yrotation
  JOINT SpineMid
  {
    OFFSET -0.000000 30.164765 0.000000
    CHANNELS 3 Zrotation Xrotation Yrotation
    JOINT SpineShoulder
    {
      OFFSET 0.033459 22.276691 -0.631407
      CHANNELS 3 Zrotation Xrotation Yrotation
      JOINT Neck
      {
        OFFSET 0.016113 7.343113 -0.505771
        CHANNELS 3 Zrotation Xrotation Yrotation
        JOINT Head
        {
          OFFSET 4.430625 11.652155 3.411217
          CHANNELS 3 Zrotation Xrotation Yrotation
          End Site
          {
            OFFSET 0 0 0
          }
        }
      }
      JOINT ShoulderLeft
      {
        OFFSET -6.907833 -3.859362 -14.256481
        CHANNELS 3 Zrotation Xrotation Yrotation
        JOINT ElbowLeft
        {
          OFFSET -3.327743 -19.634239 -6.109589
          CHANNELS 3 Zrotation Xrotation Yrotation
          JOINT WristLeft
          {
            OFFSET 7.994831 -22.984544 -1.957954
            CHANNELS 3 Zrotation Xrotation Yrotation
            JOINT HandLeft
            {
              OFFSET 0.843077 -7.501821 0.374931
              CHANNELS 3 Zrotation Xrotation Yrotation
              JOINT HandTipLeft
              {
                OFFSET 1.761668 -6.755184 0.100025
                CHANNELS 3 Zrotation Xrotation Yrotation
                End Site
                {
                  OFFSET 0 0 0
                }
              }
              JOINT ThumbLeft
              {
                OFFSET 2.880173 1.230639 1.211205
                CHANNELS 3 Zrotation Xrotation Yrotation
                End Site
                {
                  OFFSET 0 0 0
                }
              }
            }
          }
        }
      }
      JOINT ShoulderRight
      {
        OFFSET 8.781690 -3.464685 13.768040
        CHANNELS 3 Zrotation Xrotation Yrotation
        JOINT ElbowRight
        {
          OFFSET 1.425009 -26.922051 4.421757
          CHANNELS 3 Zrotation Xrotation Yrotation
          JOINT WristRight
          {
            OFFSET 1.361040 -26.741161 -5.960904
            CHANNELS 3 Zrotation Xrotation Yrotation
            JOINT HandRight
            {
              OFFSET -0.308347 -2.243365 -3.020900
              CHANNELS 3 Zrotation Xrotation Yrotation
              JOINT HandTipRight
              {
                OFFSET -0.836222 -3.745093 -0.154793
                CHANNELS 3 Zrotation Xrotation Yrotation
                End Site
                {
                  OFFSET 0 0 0
                }
              }
              JOINT ThumbRight
              {
                OFFSET 0.699166 -2.343879 -0.240692
                CHANNELS 3 Zrotation Xrotation Yrotation
                End Site
                {
                  OFFSET 0 0 0
                }
              }
            }
          }
        }
      }
    }
  }
  JOINT HipLeft
  {
    OFFSET -2.703789 1.873631 -8.848022
    CHANNELS 3 Zrotation Xrotation Yrotation
    JOINT KneeLeft
    {
      OFFSET -9.281521 -30.940432 -6.255488
      CHANNELS 3 Zrotation Xrotation Yrotation
      JOINT AnkleLeft
      {
        OFFSET -5.139493 -32.371661 -1.046857
        CHANNELS 3 Zrotation Xrotation Yrotation
        JOINT FootLeft
        {
          OFFSET 1.075676 -6.692263 -8.255515
          CHANNELS 3 Zrotation Xrotation Yrotation
          End Site
          {
            OFFSET 0 0 0
          }
        }
      }
    }
  }
  JOINT HipRight
  {
    OFFSET 3.803093 -0.565799 1.866388
    CHANNELS 3 Zrotation Xrotation Yrotation
    JOINT KneeRight
    {
      OFFSET -2.956431 -30.530317 3.379523
      CHANNELS 3 Zrotation Xrotation Yrotation
      JOINT AnkleRight
      {
        OFFSET -3.574339 -29.661963 3.858112
        CHANNELS 3 Zrotation Xrotation Yrotation
        JOINT FootRight
        {
          OFFSET 5.015847 -7.107632 -3.751854
          CHANNELS 3 Zrotation Xrotation Yrotation
          End Site
          {
            OFFSET 0 0 0
          }
        }
      }
    }
  }
}
MOTION
Frames: 14
Frame Time: 0.033333
-50.235473 69.490930 322.096662 -1.013422 2.132858 -62.422835 -0.239914 -0.401268 62.387192 -0.350856 0.085583 -0.091242 -0.842606 0.502859 -0.132965 0.000000 0.000000 0.000000 1.669329 0.611013 -0.265843 -6.017117 -1.689431 1.149960 9.674572 -5.496690 -0.970169 -7.213453 0.600169 -0.408142 0.000000 0.000000 0.000000 0.000000 0.000000 0.000000 2.083587 3.199985 0.499005 -1.667236 -4.368803 -0.105387 1.949890 -27.193595 3.732437 13.027229 56.612019 -19.682361 0.000000 0.000000 0.000000 0.000000 0.000000 0.000000 2.109964 -1.920395 62.976809 0.618683 1.241814 -0.590699 1.460216 -2.533212 -0.645679 0.000000 0.000000 0.000000 2.359610 -0.088770 62.443529 -1.350838 1.415455 -0.329658 0.231569 -1.272600 1.035678 0.000000 0.000000 0.000000
-50.142816 69.490349 322.132991 -1.092820 2.240449 -62.520729 -0.220801 -0.366275 62.486804 -0.353609 0.092662 -0.093369 -0.779282 0.442255 -0.157094 0.000000 0.000000 0.000000 1.528663 0.652941 -0.232522 -5.666461 -1.807199 1.113894 9.167242 -5.124284 -0.969379 -5.773597 0.379478 -0.457013 0.000000 0.000000 0.000000 0.000000 0.000000 0.000000 2.123855 3.084508 0.505044 -1.777420 -4.403389 -0.091957 1.442627 -24.136547 3.846891 11.461195 48.761501 -16.662187 0.000000 0.000000 0.000000 0.000000 0.000000 0.000000 2.112946 -1.921500 63.059647 0.626830 1.123547 -0.571253 1.471468 -2.845295 -0.627272 0.000000 0.000000 0.000000 2.517303 -0.875543 62.503740 -0.822993 1.953188 -0.317779 0.555951 -1.559234 0.899330 0.000000 0.000000 0.000000
-50.034191 69.480186 322.204264 -1.124331 2.274406 -62.515922 -0.283992 -0.381695 62.479982 -0.390156 0.100960 -0.099766 -0.549303 0.448966 -0.216205 0.000000 0.000000 0.000000 1.400615 0.653760 -0.166429 -5.113516 -1.781949 1.082762 8.064176 -4.503218 -0.992657 -5.089533 -0.480274 -0.613059 0.000000 0.000000 0.000000 0.000000 0.000000 0.000000 2.232275 2.992896 0.516787 -1.874512 -4.668328 -0.095436 1.182535 -21.843970 3.874072 10.071893 41.333666 -13.918334 0.000000 0.000000 0.000000 0.000000 0.000000 0.000000 1.907449 -1.916490 63.010170 0.675664 0.852725 -0.520805 1.396026 -2.826370 -0.465719 0.000000 0.000000 0.000000 2.575539 -0.892639 62.500058 -1.000877 2.074045 -0.349197 1.739387 -1.639631 0.448726 0.000000 0.000000 0.000000
-49.916789 69.473409 322.297633 -1.090680 2.266857 -62.323721 -0.321304 -0.397608 62.286514 -0.348126 0.033317 -0.097020 -0.388456 0.197861 -0.167582 0.000000 0.000000 0.000000 1.143493 0.726156 -0.111727 -4.544273 -1.652474 1.065939 7.523112 -2.259258 -0.803104 -5.022941 -4.305437 -1.458334 0.000000 0.000000 0.000000 0.000000 0.000000 0.000000 2.186744 3.042805 0.511279 -2.026568 -4.792821 -0.082822 0.971344 -20.442782 4.076780 9.877674 39.040842 -13.500553 0.000000 0.000000 0.000000 0.000000 0.000000 0.000000 1.543740 -1.895622 62.737413 0.694191 0.494028 -0.439129 1.303124 -2.769693 -0.251476 0.000000 0.000000 0.000000 2.461977 -0.980605 62.292162 -1.104237 2.073407 -0.362155 1.931447 -1.690448 0.483513 0.000000 0.000000 0.000000
-49.796673 69.471115 322.411028 -1.017110 2.212840 -62.097605 -0.272616 -0.406104 62.061300 -0.271173 -0.077140 -0.087720 0.326740 -0.619351 -0.044454 0.000000 0.000000 0.000000 0.889141 0.913101 -0.096826 -4.255550 -1.330027 1.146109 6.261830 -2.266609 -0.932130 -3.466772 -4.496693 -1.407078 0.000000 0.000000 0.000000 0.000000 0.000000 0.000000 2.019223 3.254461 0.491199 -2.164574 -4.943571 -0.073802 1.185911 -19.608714 3.770576 8.066959 43.622500 -13.627404 0.000000 0.000000 0.000000 0.000000 0.000000 0.000000 1.079003 -1.833473 62.405752 0.658655 0.073519 -0.333764 1.192709 -2.593678 0.035932 0.000000 0.000000 0.000000 2.233620 -1.050669 62.042929 -1.194028 1.994901 -0.367904 2.106527 -1.726202 0.513919 0.000000 0.000000 0.000000
-49.677171 69.488479 322.516456 -0.907822 2.113509 -61.459087 -0.031605 -0.348439 61.430897 -0.165612 -0.196114 -0.067496 1.398059 -1.776248 0.121744 0.000000 0.000000 0.000000 0.431976 1.291450 -0.101869 -3.819541 -1.023605 1.212036 4.639805 -3.564215 -1.217193 -1.171643 -3.102211 -1.056193 0.000000 0.000000 0.000000 0.000000 0.000000 0.000000 1.639834 3.659552 0.449842 -2.343861 -4.813834 -0.040766 1.289599 -20.927244 4.086279 8.828162 49.308627 -15.718961 0.000000 0.000000 0.000000 0.000000 0.000000 0.000000 0.559816 -1.745800 61.652386 0.570027 -0.341790 -0.221915 1.074939 -2.497234 0.341942 0.000000 0.000000 0.000000 2.002068 -1.260205 61.383223 -1.224705 2.058680 -0.378130 2.295955 -1.793004 0.550889 0.000000 0.000000 0.000000
-49.225838 69.509600 322.706154 -0.447395 1.793862 -60.806478 0.384422 -0.254722 60.796319 -0.113892 -0.291145 -0.030543 3.459190 -3.369348 0.210288 0.000000 0.000000 0.000000 -0.606502 2.160830 -0.107240 -2.986971 -1.031083 1.174104 2.761828 -4.488058 -1.448234 0.284548 -1.857399 -0.793318 0.000000 0.000000 0.000000 0.000000 0.000000 0.000000 0.846113 4.391896 0.373565 -2.464632 -4.816863 -0.025003 0.470595 -18.871243 4.976314 10.392789 44.092010 -16.123188 0.000000 0.000000 0.000000 0.000000 0.000000 0.000000 -0.670640 -2.251695 60.930907 0.981226 -0.840676 -0.183698 1.081246 -2.302043 0.549860 0.000000 0.000000 0.000000 1.012224 -2.088232 60.617793 -0.699041 2.010205 -0.320433 3.153780 -2.263258 -0.007768 0.000000 0.000000 0.000000
-49.244275 69.513504 322.741206 -0.120462 1.331868 -58.375683 1.197302 -0.595734 58.383308 -0.000000 0.000000 0.000000 6.451096 -5.093241 0.346511 0.000000 0.000000 0.000000 -0.871081 3.256289 -0.253656 -2.398978 -1.102161 1.219102 0.221582 -5.444883 -1.696135 1.421755 -1.467419 -0.811778 0.000000 0.000000 0.000000 0.000000 0.000000 0.000000 0.255161 5.433043 0.320049 -2.571292 -4.819533 -0.011386 -0.610260 -18.693647 6.655836 14.074933 38.715112 -17.926075 0.000000 0.000000 0.000000 0.000000 0.000000 0.000000 -1.550787 -1.606477 58.253890 0.360395 -1.345250 0.048808 1.119003 -2.375764 0.723321 0.000000 0.000000 0.000000 0.743058 -2.398811 58.229507 -0.906253 2.563666 -0.383016 3.531981 -2.519769 -0.155915 0.000000 0.000000 0.000000
-49.657644 69.576024 322.640248 0.060928 0.796023 -54.561385 0.613237 -0.511190 54.563697 -0.000000 0.000000 0.000000 10.918365 -8.126064 0.707259 0.000000 0.000000 0.000000 -0.424227 3.373767 -0.423326 -1.786841 -1.371839 1.251096 -1.769538 -5.005478 -1.635643 1.994705 -2.703518 -1.095157 0.000000 0.000000 0.000000 0.000000 0.000000 0.000000 0.257583 5.431850 0.320272 -2.662904 -4.822375 -0.000257 -1.192275 -17.376823 7.300914 15.212312 35.732603 -18.292611 0.000000 0.000000 0.000000 0.000000 0.000000 0.000000 -1.733306 -0.026990 54.093213 -1.149236 -1.615333 0.383397 1.158300 -2.545242 0.910749 0.000000 0.000000 0.000000 1.163928 -2.272170 54.595821 -1.704540 3.576595 -0.529224 3.510161 -2.849475 -0.197437 0.000000 0.000000 0.000000
-50.877358 69.338642 322.272411 -0.605596 0.422548 -50.314199 0.711889 0.196221 50.315213 -0.000000 0.000000 0.000000 16.457491 -11.162339 1.119352 0.000000 0.000000 0.000000 -1.202210 4.056879 -0.267760 -0.053358 -1.875242 1.156287 -2.392524 -3.138225 -1.306925 1.108935 -5.847436 -1.679046 0.000000 0.000000 0.000000 0.000000 0.000000 0.000000 -0.088100 4.313292 0.218623 -2.325593 -3.932442 0.167506 -1.538052 -15.438643 7.468711 12.736906 24.960110 -14.372290 0.000000 0.000000 0.000000 0.000000 0.000000 0.000000 -0.016924 2.870926 49.331746 -3.908509 -1.595003 0.850466 1.343196 -2.608243 0.980356 0.000000 0.000000 0.000000 3.731757 -0.967491 50.746087 -4.025856 5.247361 -0.816834 3.404682 -2.828246 0.036261 0.000000 0.000000 0.000000
-51.603060 69.296003 321.959494 -0.058775 -0.249625 -46.008731 1.041099 -0.093224 46.026125 -0.079245 -0.359880 0.022618 21.888378 -12.612206 1.006820 0.000000 0.000000 0.000000 -1.515690 5.778779 -0.392138 1.197186 -1.863634 1.316311 -2.752407 0.245279 -0.725780 0.180025 -10.239542 -2.399890 0.000000 0.000000 0.000000 0.000000 0.000000 0.000000 -0.478115 5.890350 0.209248 -2.398112 -4.037877 0.122624 -0.719647 -15.052335 6.121978 8.722769 24.299583 -11.442599 0.000000 0.000000 0.000000 0.000000 0.000000 0.000000 0.833300 4.268816 44.601550 -6.150208 -1.258406 1.147662 1.610106 -2.766970 1.010215 0.000000 0.000000 0.000000 4.663034 -1.186283 46.734663 -5.556371 6.775181 -0.978524 3.358202 -3.038888 0.194153 0.000000 0.000000 0.000000
-51.867285 69.436405 321.746602 1.407005 -1.140276 -42.138934 0.330958 -0.562359 42.202510 0.524654 -0.635893 0.092143 25.298108 -13.338945 0.525381 0.000000 0.000000 0.000000 -1.816069 6.694823 -0.797837 1.765469 -1.243561 1.686011 -2.637037 4.784813 -0.099662 -1.164116 -15.357115 -3.204040 0.000000 0.000000 0.000000 0.000000 0.000000 0.000000 -1.225568 8.179900 0.255931 -3.011180 -5.019428 -0.083135 1.440478 -16.615986 3.295153 4.123299 27.619282 -7.798636 0.000000 0.000000 0.000000 0.000000 0.000000 0.000000 0.637041 4.562152 40.495974 -7.808378 -0.630148 1.283762 1.822194 -3.091815 1.187983 0.000000 0.000000 0.000000 3.959810 -2.184291 43.107396 -6.306719 7.901467 -1.045539 2.824764 -3.164614 0.607708 0.000000 0.000000 0.000000
-51.688373 69.714039 321.597299 3.510598 -2.072961 -39.083956 -0.590339 -1.104099 39.248055 1.144679 -0.836657 0.177538 28.506418 -13.869806 -0.242443 0.000000 0.000000 0.000000 -2.135904 7.373072 -1.350323 1.659428 0.220658 2.308918 -1.634074 8.779349 0.173274 -2.575966 -20.453284 -3.996279 0.000000 0.000000 0.000000 0.000000 0.000000 0.000000 -2.178384 11.577964 0.333649 -3.952376 -6.948095 -0.452615 5.068187 -18.777773 -1.544127 -3.386317 33.185800 -1.546726 0.000000 0.000000 0.000000 0.000000 0.000000 0.000000 -0.533835 3.972013 37.466234 -8.870769 0.290380 1.258541 2.033106 -3.399678 1.495044 0.000000 0.000000 0.000000 1.946764 -3.571695 40.235119 -6.439564 8.670026 -1.055650 2.208990 -3.122181 1.200457 0.000000 0.000000 0.000000
-51.091624 69.960089 321.611206 6.070869 -3.107281 -36.933702 -1.368277 -1.574261 37.277305 1.707652 -1.059535 0.285044 31.040232 -14.008237 -1.401106 0.000000 0.000000 0.000000 -3.632990 7.913790 -1.589806 1.612813 2.507330 2.822184 0.458360 12.173672 0.125471 -3.418803 -24.485530 -4.236507 0.000000 0.000000 0.000000 0.000000 0.000000 0.000000 -3.643949 16.195252 0.404614 -5.025222 -9.730862 -0.979765 8.962204 -19.278318 -6.995028 -12.272119 41.362677 4.857709 0.000000 0.000000 0.000000 0.000000 0.000000 0.000000 -2.839170 2.960570 35.530874 -9.382663 1.207171 1.129924 2.428156 -3.734707 1.748544 0.000000 0.000000 0.000000 -1.372390 -4.909952 38.132337 -6.009162 8.830449 -1.017429 1.686972 -3.026559 1.775826 0.000000 0.000000 0.000000
